<svg width="30" height="30" viewBox="0 0 30 30" fill="none" xmlns="http://www.w3.org/2000/svg">
<circle cx="15" cy="15" r="14.5" stroke="black"/>
<g clip-path="url(#clip0_147_7648)">
<path d="M19.1275 6H10.8724C8.18573 6 6 8.18573 6 10.8724V19.1277C6 21.8142 8.18573 24 10.8724 24H19.1277C21.8142 24 24 21.8142 24 19.1277V10.8724C24 8.18573 21.8142 6 19.1275 6V6ZM15 19.9217C12.2861 19.9217 10.0783 17.7139 10.0783 15C10.0783 12.2861 12.2861 10.0783 15 10.0783C17.7139 10.0783 19.9217 12.2861 19.9217 15C19.9217 17.7139 17.7139 19.9217 15 19.9217ZM20.0394 11.239C19.2374 11.239 18.5851 10.5866 18.5851 9.78465C18.5851 8.98265 19.2374 8.3302 20.0394 8.3302C20.8414 8.3302 21.4939 8.98265 21.4939 9.78465C21.4939 10.5866 20.8414 11.239 20.0394 11.239Z" fill="#FF9900"/>
<path d="M15 11.1328C12.8681 11.1328 11.1335 12.8673 11.1335 14.9993C11.1335 17.1312 12.8681 18.8658 15 18.8658C17.1321 18.8658 18.8665 17.1312 18.8665 14.9993C18.8665 12.8673 17.1321 11.1328 15 11.1328Z" fill="#FF9900"/>
<path d="M20.0395 9.38477C19.8195 9.38477 19.6404 9.56384 19.6404 9.78384C19.6404 10.0038 19.8195 10.1829 20.0395 10.1829C20.2596 10.1829 20.4387 10.004 20.4387 9.78384C20.4387 9.56371 20.2596 9.38477 20.0395 9.38477Z" fill="#FF9900"/>
</g>
<defs>
<clipPath id="clip0_147_7648">
<rect width="18" height="18" fill="white" transform="translate(6 6)"/>
</clipPath>
</defs>
</svg>
